<svg width="24" height="24" viewBox="0 0 24 24" fill="none" xmlns="http://www.w3.org/2000/svg">
<path d="M11.9957 20C11.7819 20 11.6042 19.9281 11.4625 19.7844C11.3209 19.6406 11.25 19.4625 11.25 19.25V6.84999L5.57505 12.525C5.42838 12.675 5.25422 12.75 5.05255 12.75C4.85088 12.75 4.67505 12.675 4.52505 12.525C4.37505 12.375 4.30005 12.2 4.30005 12C4.30005 11.8 4.37505 11.625 4.52505 11.475L11.475 4.52499C11.555 4.44317 11.6417 4.38521 11.735 4.35111C11.8284 4.31703 11.9202 4.29999 12.0105 4.29999C12.1009 4.29999 12.1884 4.31665 12.273 4.34999C12.3577 4.38332 12.4417 4.44165 12.525 4.52499L19.475 11.475C19.625 11.625 19.7 11.8 19.7 12C19.7 12.2 19.6264 12.375 19.479 12.525C19.3316 12.675 19.1566 12.75 18.954 12.75C18.7514 12.75 18.575 12.675 18.425 12.525L12.75 6.84999V19.25C12.75 19.4625 12.6778 19.6406 12.5332 19.7844C12.3886 19.9281 12.2094 20 11.9957 20Z" fill="#FBFBF6"/>
</svg>
