<svg width="16" height="16" viewBox="0 0 16 16" fill="none" xmlns="http://www.w3.org/2000/svg">
<path d="M1.78058 0.000812348C1.7369 -0.00411871 1.70096 0.0149417 1.67161 0.0469306L1.6715 0.0470429L1.67139 0.0471553C1.66109 0.0580957 1.65165 0.0705345 1.64303 0.0839775L1.64292 0.0840899C1.63428 0.0975913 1.62646 0.112072 1.61937 0.12707L1.61926 0.127182C1.61904 0.127744 1.61893 0.128193 1.61872 0.128755C1.60485 0.158369 1.59371 0.189782 1.58497 0.219182C1.56828 0.278285 1.55221 0.337777 1.53587 0.397136C1.52505 0.436404 1.51388 0.475476 1.50329 0.514848C1.47669 0.613779 1.45085 0.713126 1.42631 0.812681C1.37721 1.01183 1.33311 1.21226 1.29776 1.41354C1.26239 1.61485 1.23573 1.81713 1.22148 2.02009C1.21436 2.12158 1.21033 2.22325 1.20988 2.32505C1.20944 2.42686 1.21248 2.5288 1.2196 2.63086C1.22583 2.72224 1.23522 2.81328 1.24714 2.90407C1.27092 3.08565 1.30458 3.26631 1.34112 3.44603C1.35939 3.53591 1.37835 3.62566 1.39725 3.71514C1.44542 3.93873 1.49363 4.16245 1.5436 4.38579C1.58945 4.59077 1.63705 4.79525 1.68773 4.99886C1.79707 5.43821 1.92098 5.87307 2.07583 6.29767C2.07703 6.2989 2.07817 6.30139 2.07817 6.30262C2.00738 6.32735 1.93486 6.35267 1.88026 6.40645C1.82686 6.45899 1.79869 6.54867 1.83409 6.61543C1.86589 6.67416 1.94442 6.72361 1.92162 6.78542C1.91082 6.81633 1.87778 6.83302 1.86338 6.86269C1.83039 6.9313 1.9066 6.99553 1.9576 7.05054C1.96046 7.05364 1.96286 7.05748 1.96569 7.06069C1.94936 7.10264 1.93516 7.14455 1.91811 7.18661C1.91003 7.20661 1.90361 7.22606 1.89585 7.24601C1.8693 7.25321 1.84281 7.26045 1.81605 7.2675C1.77825 7.7175 1.52866 8.11687 1.25628 8.47045C1.22466 8.51146 1.19274 8.55299 1.16301 8.59576C0.982014 8.77082 0.787056 8.93277 0.644956 9.14171C0.550163 9.28017 0.485362 9.43101 0.445165 9.58925C0.393087 9.79473 0.382765 10.0123 0.403215 10.2318C0.265273 10.1885 0.1304 10.1404 0 10.0689C0.0209986 10.1276 0.0426023 10.1863 0.0648002 10.2451C0.229189 10.6734 0.428385 11.0877 0.659369 11.4821C0.589174 11.5105 0.533293 11.5735 0.512895 11.6483C0.790076 11.7991 0.937741 12.1656 0.844747 12.4741C1.05353 12.4481 1.25934 12.6552 1.23894 12.8709C1.7645 13.1163 2.14001 13.7196 2.71657 13.7524C2.70637 13.8123 2.6956 13.8723 2.6854 13.9323C3.41015 14.3285 4.27472 14.3149 5.06426 14.5448C5.32824 14.6215 5.6042 14.7426 5.74039 14.988C6.07794 14.888 6.46644 15.0624 6.64431 15.3702C6.66972 15.4141 6.69083 15.4609 6.70688 15.5098C6.74048 15.4486 6.77475 15.3874 6.80895 15.3262C7.19712 15.6761 7.68067 15.9122 8.18944 16C8.17826 15.9844 8.17157 15.971 8.16858 15.9597C8.14767 15.8804 8.30521 15.8979 8.33041 15.8974C8.451 15.8955 8.5164 15.9437 8.63519 15.8479C8.73178 15.7694 8.81934 15.6606 8.94173 15.6458C8.95913 15.7033 8.97591 15.7608 8.9927 15.8189C9.19249 15.6934 9.38207 15.5493 9.55786 15.3904C9.58126 15.4424 9.60534 15.495 9.62934 15.5469C9.84592 15.3578 10.0565 15.1618 10.2616 14.9597C10.2598 15.0209 10.3408 15.0529 10.396 15.0295C10.4506 15.006 10.4854 14.9504 10.522 14.9022C10.6108 14.7866 10.7638 14.666 10.9 14.6178C11.0692 14.559 11.2318 14.663 11.4004 14.6191C11.353 14.5913 11.3542 14.5146 11.389 14.4713C11.4238 14.428 11.479 14.4095 11.5317 14.3941C11.7321 14.3366 11.9374 14.2989 12.1444 14.2809C12.1252 14.2407 12.1059 14.2005 12.0861 14.1597C12.2955 14.135 12.5049 14.1097 12.7143 14.085L12.7017 13.9255C12.8415 13.9496 12.9921 13.8933 13.0845 13.7821C13.1493 13.7017 13.2705 13.7259 13.3706 13.7135C13.4714 13.7011 13.5716 13.5633 13.4864 13.5077C14.246 12.9829 14.942 12.3617 15.5545 11.6625C15.4639 11.6873 15.3674 11.6848 15.2786 11.657C15.413 11.5068 15.5287 11.3379 15.6217 11.1568C15.5167 11.1673 15.4117 11.1779 15.3073 11.1884C15.4207 10.9257 15.6403 10.7285 15.7885 10.4849C15.9842 10.1647 16.0483 9.7623 15.9631 9.39451C15.9571 9.39636 15.9511 9.3982 15.9457 9.40005C15.7942 9.4461 15.6515 9.50321 15.5141 9.56763C15.5092 9.54947 15.505 9.53113 15.4994 9.51318C15.4989 9.51132 15.4982 9.50887 15.4976 9.50702C15.4568 9.37907 15.3992 9.25605 15.3212 9.14169C15.272 9.06937 15.2162 9.00264 15.1568 8.93959C15.0429 8.81716 14.9179 8.70434 14.7974 8.5873C14.7694 8.5476 14.7399 8.50869 14.7104 8.47044C14.438 8.11686 14.1884 7.71749 14.1506 7.26749C14.1237 7.2604 14.097 7.25312 14.0703 7.24587C14.0626 7.22597 14.0561 7.20656 14.0481 7.18659C14.0311 7.14471 14.017 7.10295 14.0007 7.06116C14.0036 7.05782 14.0061 7.05375 14.009 7.05053C14.06 6.99552 14.1362 6.93129 14.1033 6.86267C14.0889 6.833 14.0552 6.81631 14.045 6.78541C14.0222 6.72359 14.1007 6.67414 14.1325 6.61542C14.1679 6.54866 14.1398 6.45898 14.0864 6.40644C14.0318 6.35266 13.9593 6.32733 13.8885 6.30261C13.8885 6.30137 13.8896 6.29889 13.8908 6.29766C14.0432 5.8798 14.1659 5.45196 14.274 5.01973C14.328 4.80361 14.3784 4.58643 14.427 4.36876C14.4756 4.15108 14.5224 3.93302 14.5694 3.71513C14.5883 3.62565 14.6072 3.53578 14.6255 3.4459C14.6438 3.35606 14.6614 3.26608 14.6773 3.17583V3.17571C14.7092 2.99512 14.7347 2.81361 14.7472 2.63086C14.8041 1.81436 14.6035 1.00512 14.3817 0.219161C14.3728 0.189246 14.3615 0.157232 14.3473 0.127166C14.3402 0.112151 14.3323 0.0975902 14.3237 0.0840753C14.315 0.0705345 14.3055 0.0579014 14.2951 0.046898L14.295 0.0470104C14.265 0.0149844 14.2297 -0.00416363 14.186 0.000770788C14.1338 0.00633086 14.0936 0.0482999 14.0564 0.0860061C13.6808 0.480996 13.2602 0.829026 12.8361 1.17209C12.4962 1.44654 12.1539 1.7179 11.8309 2.00827C11.5887 2.22604 11.3573 2.45458 11.1459 2.70307C11.0754 2.78589 11.0071 2.87091 10.9414 2.95853C10.867 3.05774 10.7961 3.15991 10.7245 3.26144C10.6941 3.30456 10.6634 3.3474 10.6325 3.39002C10.3852 3.29702 10.1322 3.21955 9.87484 3.15677C9.8696 3.1428 9.86453 3.12877 9.85913 3.11488C9.60775 3.06048 9.3527 3.01968 9.09712 2.99125C9.09922 2.99882 9.10093 3.00648 9.10298 3.01407C9.04724 3.00666 8.99172 2.99746 8.93588 2.99125C8.87409 2.98383 8.81218 2.97774 8.75039 2.97217C8.57986 2.95699 8.39794 2.94578 8.21652 2.93487C8.2093 2.927 8.20191 2.9226 8.19425 2.92207C8.18526 2.9214 8.1756 2.9214 8.1666 2.92087C8.15881 2.92087 8.15165 2.92154 8.14445 2.92207C8.13726 2.9214 8.12999 2.92087 8.12219 2.92087C8.10131 2.92177 8.08074 2.92298 8.05997 2.92401C8.05064 2.92356 8.04225 2.92252 8.0329 2.92208C8.0239 2.92152 8.01424 2.92152 8.00524 2.92088C7.99745 2.92088 7.9903 2.92155 7.9831 2.92208C7.9759 2.92152 7.96875 2.92088 7.96095 2.92088C7.75277 2.93015 7.54933 2.94429 7.35314 2.96036C7.30694 2.96407 7.26129 2.96848 7.21569 2.97219C7.0417 2.98764 6.86842 3.00862 6.69623 3.03582C6.43225 3.07661 6.17061 3.13159 5.91383 3.20206C5.71775 3.25522 5.52506 3.31896 5.33508 3.39028C5.3309 3.38448 5.32633 3.37907 5.32219 3.37325C5.22259 3.23541 5.12725 3.09392 5.02525 2.95855C4.96068 2.87255 4.89369 2.78895 4.82453 2.70755C4.61703 2.46336 4.39027 2.23845 4.15285 2.02398C3.8363 1.73801 3.50073 1.47071 3.16655 1.2012C2.72978 0.848867 2.29605 0.492757 1.91027 0.0860241C1.87307 0.0483167 1.83278 0.00637467 1.78058 0.000812348Z" fill="#BB5330"/>
</svg>
