<svg width="157" height="24" viewBox="0 0 157 24" fill="none" xmlns="http://www.w3.org/2000/svg">
<path d="M15.5608 19.7306C15.5608 19.8777 15.4966 20.0015 15.3682 20.1021C14.967 20.4117 14.4294 20.6864 13.7554 20.9263C13.0894 21.1585 12.4034 21.3404 11.6972 21.472C10.9911 21.6035 10.3813 21.6693 9.86779 21.6693C8.20683 21.6693 6.70635 21.3636 5.36635 20.7522C4.02636 20.1331 2.96318 19.2353 2.17683 18.0589C1.39049 16.8825 0.997314 15.4546 0.997314 13.7752C0.997314 12.0338 1.34636 10.5092 2.04444 9.20124C2.75055 7.89329 3.76156 6.87557 5.07749 6.14807C6.39342 5.42057 7.96611 5.05682 9.79557 5.05682C10.5258 5.05682 11.3322 5.13035 12.2148 5.2774C13.1055 5.42444 13.8758 5.66049 14.5257 5.98555C14.7183 6.07842 14.8146 6.20225 14.8146 6.35703C14.8146 6.40347 14.7704 6.57374 14.6822 6.86783C14.5939 7.16193 14.5016 7.45989 14.4053 7.76172C14.309 8.05582 14.2449 8.24156 14.2128 8.31896C14.1807 8.41957 14.1365 8.50857 14.0804 8.58596C14.0242 8.66336 13.9319 8.70205 13.8035 8.70205C13.7474 8.70205 13.6952 8.69432 13.6471 8.67884C13.5989 8.66336 13.5508 8.64788 13.5026 8.6324C12.9329 8.40796 12.3592 8.24156 11.7815 8.13321C11.2038 8.01712 10.606 7.95908 9.98815 7.95908C8.20683 7.95908 6.78258 8.45439 5.71539 9.44503C4.65623 10.4279 4.12665 11.7862 4.12665 13.5198C4.12665 15.1451 4.62414 16.4259 5.61911 17.3624C6.6221 18.2988 7.95809 18.7671 9.62707 18.7671C10.1486 18.7671 10.6943 18.7168 11.264 18.6162C11.8337 18.5155 12.3552 18.3569 12.8286 18.1402C12.8848 18.117 12.9129 18.0744 12.9129 18.0125C12.9129 17.5791 12.9089 17.1418 12.9008 16.7007C12.8928 16.2595 12.8888 15.8222 12.8888 15.3888C12.8888 15.296 12.8367 15.2495 12.7323 15.2495H9.91594C9.58695 15.2495 9.42246 15.0909 9.42246 14.7736V13.6359C9.42246 13.3186 9.58695 13.1599 9.91594 13.1599H14.9831C15.312 13.1599 15.4765 13.3186 15.4765 13.6359C15.4765 14.6497 15.4886 15.6675 15.5126 16.6891C15.5447 17.7029 15.5608 18.7168 15.5608 19.7306Z" fill="black"/>
<path d="M17.6671 21.4952C17.5547 21.4952 17.4344 21.4797 17.306 21.4488C17.1776 21.4101 17.1134 21.3172 17.1134 21.1702C17.1134 21.1083 17.1254 21.0463 17.1495 20.9844C17.1736 20.9225 17.1977 20.8645 17.2217 20.8103C17.9278 19.3398 18.6259 17.8693 19.316 16.3989C20.0141 14.9284 20.7001 13.4502 21.3741 11.9642C21.9278 10.7414 22.4774 9.51858 23.023 8.29577C23.5687 7.06521 24.1303 5.84627 24.7081 4.63893C24.7321 4.59249 24.7723 4.56927 24.8284 4.56927C24.8846 4.56927 24.9247 4.59249 24.9488 4.63893C25.5265 5.84627 26.0882 7.06521 26.6338 8.29577C27.1794 9.51858 27.7291 10.7414 28.2827 11.9642C28.9568 13.4502 29.6388 14.9284 30.3288 16.3989C31.0269 17.8693 31.729 19.3398 32.4351 20.8103C32.4592 20.8645 32.4833 20.9225 32.5074 20.9844C32.5314 21.0463 32.5435 21.1083 32.5435 21.1702C32.5435 21.3172 32.4793 21.4101 32.3509 21.4488C32.2225 21.4797 32.1021 21.4952 31.9898 21.4952H29.5586C29.358 21.4952 29.2055 21.3985 29.1012 21.205C29.037 21.0812 28.9768 20.9496 28.9206 20.8103C28.8645 20.671 28.8083 20.5394 28.7521 20.4156C28.5756 20.0286 28.4031 19.6339 28.2346 19.2315C28.0741 18.829 27.9016 18.4343 27.7171 18.0473C27.693 17.9854 27.6488 17.9545 27.5847 17.9545H21.6269C21.5627 17.9545 21.5186 17.9854 21.4945 18.0473C21.3019 18.4343 21.1174 18.829 20.9408 19.2315C20.7723 19.6339 20.5958 20.0325 20.4112 20.4272C20.3551 20.551 20.2949 20.6826 20.2307 20.8219C20.1745 20.9612 20.1104 21.0928 20.0381 21.2166C19.9338 21.4023 19.7854 21.4952 19.5928 21.4952H17.6671ZM22.6259 15.5282H26.6338C26.3129 14.7543 25.9879 13.9842 25.6589 13.218C25.3299 12.4441 25.0009 11.6701 24.672 10.8962C24.335 11.6701 23.9939 12.4441 23.6489 13.218C23.3119 13.9842 22.9709 14.7543 22.6259 15.5282Z" fill="black"/>
<path d="M33.6868 5.70694C33.6868 5.38189 33.8513 5.21936 34.1803 5.21936H44.3868C44.7158 5.21936 44.8802 5.38189 44.8802 5.70694C44.8802 6.00877 44.8802 6.31835 44.8802 6.63566C44.8883 6.94523 44.8802 7.25094 44.8562 7.55277C44.8321 7.86235 44.6676 8.01713 44.3627 8.01713H40.8723C40.776 8.01713 40.7279 8.06357 40.7279 8.15644C40.7279 8.97681 40.7238 9.79718 40.7158 10.6176C40.7158 11.4302 40.7158 12.2467 40.7158 13.0671C40.7158 14.3905 40.7198 15.7178 40.7279 17.0489C40.7359 18.3724 40.7399 19.6958 40.7399 21.0192C40.7399 21.3365 40.5754 21.4952 40.2464 21.4952H38.1642C37.8352 21.4952 37.6707 21.3365 37.6707 21.0192C37.6707 19.6571 37.6747 18.295 37.6828 16.9329C37.6988 15.5707 37.7068 14.2125 37.7068 12.8581L37.6948 8.15644C37.6948 8.06357 37.6426 8.01713 37.5383 8.01713H34.2044C33.8995 8.01713 33.735 7.86235 33.7109 7.55277C33.6868 7.25094 33.6748 6.94523 33.6748 6.63566C33.6828 6.31835 33.6868 6.00877 33.6868 5.70694Z" fill="black"/>
<path d="M46.5654 21.4952C46.453 21.4952 46.3327 21.4798 46.2043 21.4488C46.0759 21.4101 46.0117 21.3172 46.0117 21.1702C46.0117 21.1083 46.0238 21.0464 46.0478 20.9844C46.0719 20.9225 46.096 20.8645 46.12 20.8103C46.8261 19.3398 47.5242 17.8694 48.2143 16.3989C48.9124 14.9284 49.5984 13.4502 50.2724 11.9642C50.8261 10.7414 51.3757 9.51861 51.9214 8.29579C52.467 7.06523 53.0287 5.84629 53.6064 4.63895C53.6305 4.59251 53.6706 4.5693 53.7267 4.5693C53.7829 4.5693 53.823 4.59251 53.8471 4.63895C54.4248 5.84629 54.9865 7.06523 55.5321 8.29579C56.0778 9.51861 56.6274 10.7414 57.1811 11.9642C57.8551 13.4502 58.5371 14.9284 59.2272 16.3989C59.9252 17.8694 60.6273 19.3398 61.3334 20.8103C61.3575 20.8645 61.3816 20.9225 61.4057 20.9844C61.4297 21.0464 61.4418 21.1083 61.4418 21.1702C61.4418 21.3172 61.3776 21.4101 61.2492 21.4488C61.1208 21.4798 61.0005 21.4952 60.8881 21.4952H58.4569C58.2563 21.4952 58.1038 21.3985 57.9995 21.205C57.9353 21.0812 57.8751 20.9496 57.819 20.8103C57.7628 20.671 57.7066 20.5394 57.6505 20.4156C57.4739 20.0286 57.3014 19.6339 57.1329 19.2315C56.9724 18.829 56.7999 18.4343 56.6154 18.0474C56.5913 17.9854 56.5472 17.9545 56.483 17.9545H50.5252C50.461 17.9545 50.4169 17.9854 50.3928 18.0474C50.2002 18.4343 50.0157 18.829 49.8391 19.2315C49.6706 19.6339 49.4941 20.0325 49.3096 20.4272C49.2534 20.551 49.1932 20.6826 49.129 20.8219C49.0729 20.9612 49.0087 21.0928 48.9364 21.2166C48.8321 21.4024 48.6837 21.4952 48.4911 21.4952H46.5654ZM51.5242 15.5282H55.5321C55.2112 14.7543 54.8862 13.9842 54.5572 13.218C54.2282 12.4441 53.8993 11.6701 53.5703 10.8962C53.2333 11.6701 52.8923 12.4441 52.5472 13.218C52.2102 13.9842 51.8692 14.7543 51.5242 15.5282ZM57.0487 0.413269C57.1369 0.413269 57.2814 0.424878 57.4819 0.448096C57.6906 0.471314 57.7949 0.552577 57.7949 0.691885C57.7949 0.792497 57.7387 0.896978 57.6264 1.00533C57.5221 1.10594 57.4378 1.1872 57.3736 1.24912C57.0848 1.49678 56.7959 1.74831 56.507 2.0037C56.2182 2.25136 55.9333 2.49902 55.6525 2.74668C55.5 2.88599 55.3436 3.02917 55.1831 3.17621C55.0226 3.31552 54.8621 3.45096 54.7017 3.58253C54.5973 3.66766 54.485 3.71023 54.3647 3.71023H53.6545C53.5502 3.71023 53.4258 3.69475 53.2814 3.66379C53.145 3.63284 53.0768 3.55157 53.0768 3.42C53.0768 3.34261 53.0969 3.26522 53.137 3.18782C53.1771 3.11043 53.2172 3.04465 53.2573 2.99047C53.5302 2.59576 53.807 2.19719 54.0878 1.79474C54.3687 1.3923 54.6575 1.00146 54.9544 0.622231C55.0667 0.482923 55.1991 0.413269 55.3516 0.413269H57.0487Z" fill="black"/>
<path d="M64.0662 0.00116033C63.9962 -0.00623622 63.9386 0.0223068 63.8916 0.0702917L63.8912 0.0706292L63.8911 0.0707975C63.8745 0.0872081 63.8595 0.105834 63.8456 0.125999L63.8455 0.126167C63.8316 0.146421 63.8191 0.168189 63.8077 0.190686L63.8076 0.190854C63.8072 0.191696 63.807 0.19237 63.8065 0.193196C63.7843 0.237617 63.7665 0.284748 63.7524 0.328847C63.7257 0.417503 63.6999 0.506671 63.6737 0.59571C63.6564 0.654611 63.6385 0.713225 63.6216 0.772283V0.77262C63.5789 0.921016 63.5376 1.06986 63.4982 1.21919C63.4196 1.51791 63.3489 1.8185 63.2923 2.12042C63.2356 2.42238 63.1929 2.72584 63.17 3.03028C63.1586 3.18251 63.1522 3.33502 63.1514 3.48773C63.1507 3.64044 63.1556 3.79331 63.167 3.94641C63.177 4.08347 63.1921 4.22004 63.2112 4.35623C63.2493 4.6286 63.3032 4.8996 63.3618 5.16919C63.391 5.30401 63.4214 5.43862 63.4517 5.57283C63.5289 5.90821 63.6061 6.24379 63.6862 6.57881C63.7596 6.88627 63.8359 7.19301 63.9171 7.49842C64.0923 8.15744 64.2909 8.80975 64.539 9.44665C64.5409 9.4485 64.5427 9.45219 64.5427 9.45404C64.4292 9.49113 64.313 9.52914 64.2255 9.60981C64.14 9.68862 64.0949 9.82311 64.1516 9.92325C64.2026 10.0113 64.3284 10.0856 64.2919 10.1783C64.2746 10.2246 64.2216 10.2497 64.1986 10.2942C64.1457 10.3971 64.2678 10.4934 64.3495 10.5759C64.3541 10.5806 64.358 10.5863 64.3625 10.5911C64.3363 10.6541 64.3135 10.7169 64.2862 10.78C64.2733 10.81 64.263 10.8391 64.2506 10.8691C64.208 10.8799 64.1656 10.8908 64.1227 10.9014C64.0622 11.5764 63.6622 12.1754 63.2258 12.7058C63.1751 12.7673 63.124 12.8296 63.0763 12.8937C62.7863 13.1563 62.474 13.3992 62.2463 13.7126C62.0944 13.9203 61.9906 14.1466 61.9262 14.384C61.8428 14.6922 61.8262 15.0186 61.859 15.3477C61.6379 15.2828 61.4218 15.2107 61.2129 15.1034C61.2465 15.1915 61.2811 15.2796 61.3167 15.3677C61.5801 16.0102 61.8993 16.6316 62.2694 17.2232C62.1569 17.2658 62.0674 17.3603 62.0347 17.4725C62.4788 17.6988 62.7154 18.2485 62.5664 18.7112C62.9009 18.6722 63.2307 18.9829 63.198 19.3064C64.0401 19.6745 64.6418 20.5794 65.5656 20.6286C65.5493 20.7185 65.532 20.8085 65.5157 20.8985C66.6769 21.4928 68.0622 21.4724 69.3272 21.8173C69.7502 21.9323 70.1923 22.114 70.4105 22.4821C70.9514 22.332 71.5739 22.5937 71.8589 23.0552C71.8996 23.1212 71.9334 23.1913 71.9591 23.2648C72.0129 23.173 72.0679 23.0811 72.1227 22.9893C72.7446 23.5141 73.5194 23.8683 74.3346 24C74.3167 23.9766 74.3059 23.9566 74.3012 23.9396C74.2677 23.8207 74.5201 23.8469 74.5605 23.8461C74.7537 23.8433 74.8585 23.9156 75.0489 23.7719C75.2036 23.6541 75.3439 23.491 75.54 23.4687C75.5679 23.5549 75.5947 23.6412 75.6216 23.7283C75.9417 23.5401 76.2455 23.324 76.5272 23.0857C76.5647 23.1636 76.6033 23.2425 76.6418 23.3204C76.9888 23.0366 77.3261 22.7428 77.6548 22.4396C77.652 22.5314 77.7817 22.5795 77.8701 22.5442C77.9576 22.509 78.0133 22.4257 78.072 22.3534C78.2143 22.18 78.4595 21.999 78.6777 21.9267C78.9488 21.8386 79.2092 21.9945 79.4794 21.9287C79.4034 21.8869 79.4055 21.7719 79.4612 21.707C79.517 21.6421 79.6053 21.6143 79.6899 21.5911C80.011 21.5049 80.3398 21.4483 80.6715 21.4214C80.6407 21.3611 80.6099 21.3008 80.5781 21.2396C80.9136 21.2025 81.2492 21.1646 81.5847 21.1276L81.5644 20.8883C81.7884 20.9244 82.0298 20.84 82.1778 20.6731C82.2816 20.5526 82.4757 20.5889 82.6363 20.5703C82.7978 20.5518 82.9583 20.3449 82.8218 20.2615C84.0388 19.4743 85.154 18.5425 86.1355 17.4939C85.9903 17.531 85.8356 17.5272 85.6933 17.4855C85.9087 17.2602 86.0941 17.0069 86.2431 16.7353C86.0749 16.751 85.9066 16.7669 85.7393 16.7827C85.921 16.3886 86.2729 16.0928 86.5104 15.7274C86.8239 15.2472 86.9266 14.6436 86.7901 14.0919C86.7805 14.0947 86.7709 14.0974 86.7622 14.1001C86.5196 14.1692 86.2908 14.2549 86.0707 14.3515C86.0628 14.3243 86.0562 14.2968 86.0472 14.2698C86.0463 14.2671 86.0452 14.2634 86.0442 14.2606C85.9788 14.0687 85.8866 13.8841 85.7617 13.7126C85.6828 13.6041 85.5934 13.504 85.4983 13.4094C85.3157 13.2258 85.1153 13.0566 84.9223 12.881C84.8774 12.8215 84.8301 12.7631 84.7829 12.7058C84.3464 12.1754 83.9465 11.5764 83.886 10.9014C83.8428 10.8907 83.8002 10.8798 83.7574 10.8689C83.745 10.839 83.7346 10.8099 83.7217 10.78C83.6945 10.7172 83.6719 10.6545 83.6458 10.5918C83.6505 10.5868 83.6544 10.5807 83.6592 10.5759C83.7409 10.4934 83.863 10.3971 83.8101 10.2942C83.7871 10.2496 83.7331 10.2245 83.7168 10.1782C83.6803 10.0855 83.8061 10.0113 83.8571 9.92324C83.9138 9.8231 83.8686 9.68861 83.7831 9.6098C83.6956 9.52913 83.5794 9.49112 83.4659 9.45403C83.4659 9.45218 83.4678 9.44849 83.4697 9.44664C83.7139 8.81985 83.9105 8.1781 84.0837 7.52975C84.1703 7.20557 84.2511 6.8798 84.3289 6.55329C84.4068 6.22677 84.4818 5.89966 84.557 5.57282C84.5873 5.43861 84.6177 5.30382 84.6469 5.169C84.6762 5.03424 84.7045 4.89926 84.73 4.76388C84.7811 4.49298 84.8219 4.22053 84.8418 3.9464C84.9331 2.72167 84.6117 1.50785 84.2563 0.328915C84.242 0.284042 84.224 0.236013 84.2013 0.190913C84.1899 0.16839 84.1771 0.1465 84.1633 0.126226C84.1494 0.105917 84.1341 0.0870128 84.1175 0.0705096L84.1173 0.070678C84.0693 0.0226392 84.0127 -0.00611827 83.9427 0.00128502C83.859 0.00962509 83.7946 0.0725412 83.735 0.1291C83.1333 0.721581 82.4594 1.24363 81.7798 1.75822C81.2352 2.1699 80.6868 2.57697 80.1692 3.01252C79.7811 3.33918 79.4104 3.682 79.0716 4.05472C78.9587 4.17896 78.8492 4.30647 78.7439 4.43791C78.6247 4.58672 78.5111 4.74002 78.3965 4.89231C78.3478 4.95699 78.2986 5.02123 78.2491 5.08517C77.8529 4.94567 77.4474 4.82942 77.0351 4.73524C77.0267 4.71429 77.0185 4.69323 77.0099 4.67238C76.6071 4.59079 76.1985 4.52966 75.789 4.48701C75.7923 4.49837 75.7951 4.50985 75.7984 4.52123C75.7091 4.51013 75.6201 4.49633 75.5306 4.48701C75.4316 4.47589 75.3324 4.46671 75.2334 4.45837C74.9601 4.4356 74.6687 4.41875 74.378 4.40238C74.3664 4.39059 74.3546 4.38402 74.3423 4.38323C74.3279 4.38222 74.3124 4.38222 74.298 4.38139C74.2855 4.38139 74.2741 4.3824 74.2625 4.38323C74.251 4.38222 74.2394 4.38139 74.2269 4.38139C74.1934 4.38274 74.1604 4.38456 74.1271 4.38609C74.1122 4.38542 74.0988 4.38388 74.0838 4.38323C74.0694 4.38222 74.0539 4.38222 74.0395 4.38139C74.027 4.38139 74.0155 4.3824 74.004 4.38323C73.9925 4.38222 73.981 4.38139 73.9685 4.38139C73.635 4.39529 73.309 4.41649 72.9946 4.4406C72.9206 4.44616 72.8474 4.45279 72.7743 4.45836C72.4956 4.48154 72.218 4.51299 71.9421 4.55378C71.5191 4.61498 71.0999 4.69745 70.6885 4.80315C70.3743 4.88289 70.0656 4.97853 69.7612 5.08551C69.7545 5.07681 69.7471 5.06871 69.7405 5.06C69.5809 4.85323 69.4281 4.64095 69.2647 4.4379C69.1612 4.3089 69.054 4.18351 68.9431 4.06142C68.6107 3.69513 68.2473 3.35773 67.8668 3.03602C67.3596 2.60708 66.822 2.20618 66.2866 1.80192C65.5868 1.27342 64.8918 0.739275 64.2737 0.129178C64.2141 0.072619 64.1498 0.00950545 64.0662 0.00116033ZM74.7125 5.12648C75.186 5.12648 75.7316 5.16908 76.3494 5.25421C76.9672 5.33935 77.4928 5.47473 77.9261 5.66047C78.0224 5.69917 78.0986 5.74953 78.1548 5.81145C78.211 5.86562 78.2391 5.95073 78.2391 6.06682C78.2391 6.10552 78.211 6.24866 78.1548 6.49632C78.0986 6.74398 78.0384 6.99554 77.9743 7.25094C77.9181 7.4986 77.878 7.64951 77.8539 7.70369C77.8218 7.81204 77.7777 7.90875 77.7215 7.99389C77.6653 8.07128 77.569 8.11003 77.4326 8.11003C77.3444 8.11003 77.2481 8.09066 77.1438 8.05196C76.8389 7.95135 76.53 7.87008 76.2171 7.80817C75.9122 7.73852 75.5951 7.70369 75.2662 7.70369C74.865 7.70369 74.4638 7.75789 74.0626 7.86624C73.6694 7.9746 73.3405 8.16034 73.0757 8.42348C72.8109 8.68661 72.6785 9.05034 72.6785 9.5147C72.6785 10.0951 72.831 10.575 73.1359 10.9542C73.4408 11.3257 73.8299 11.6469 74.3033 11.9178C74.7848 12.1809 75.2943 12.4441 75.8319 12.7072C76.3695 12.9626 76.875 13.2683 77.3484 13.6243C77.8298 13.9726 78.223 14.4137 78.528 14.9477C78.8329 15.4817 78.9853 16.1667 78.9853 17.0025C78.9853 18.1479 78.7045 19.0612 78.1428 19.7423C77.5811 20.4233 76.8429 20.9148 75.9282 21.2166C75.0135 21.5184 74.0305 21.6693 72.9794 21.6693C72.6664 21.6693 72.2933 21.65 71.86 21.6113C71.4348 21.5803 71.0095 21.53 70.5842 21.4604C70.167 21.383 69.814 21.2901 69.5251 21.1818C69.4288 21.1431 69.3486 21.0966 69.2844 21.0425C69.2202 20.9883 69.1881 20.9032 69.1881 20.7871C69.1881 20.7407 69.2202 20.5897 69.2844 20.3343C69.3486 20.0712 69.4168 19.808 69.489 19.5449C69.5612 19.2818 69.6053 19.1192 69.6213 19.0573C69.6615 18.949 69.7056 18.8599 69.7538 18.7903C69.8099 18.7206 69.9062 18.6858 70.0426 18.6858C70.1229 18.6858 70.1991 18.6974 70.2713 18.7206C70.6645 18.829 71.0616 18.9218 71.4628 18.9992C71.8721 19.0766 72.2813 19.1154 72.6905 19.1154C73.196 19.1154 73.6814 19.0496 74.1468 18.918C74.6202 18.7787 75.0054 18.5465 75.3023 18.2215C75.6072 17.8964 75.7597 17.4514 75.7597 16.8865C75.7597 16.2441 75.6032 15.7294 75.2903 15.3424C74.9773 14.9477 74.5762 14.6188 74.0867 14.3557C73.5972 14.0848 73.0757 13.8294 72.5221 13.5895C71.9764 13.3418 71.4589 13.0554 70.9694 12.7304C70.48 12.4053 70.0787 11.9835 69.7658 11.465C69.4528 10.9465 69.2964 10.2732 69.2964 9.44504C69.2964 8.41571 69.5491 7.58763 70.0546 6.96074C70.5601 6.32612 71.2262 5.86175 72.0527 5.56766C72.8791 5.27356 73.7657 5.12648 74.7125 5.12648Z" fill="#BB5330"/>
<path d="M87.0325 5.70694C87.0325 5.38189 87.197 5.21936 87.526 5.21936H97.7325C98.0615 5.21936 98.2259 5.38189 98.2259 5.70694C98.2259 6.00877 98.2259 6.31835 98.2259 6.63566C98.234 6.94523 98.226 7.25094 98.2019 7.55277C98.1778 7.86235 98.0133 8.01713 97.7084 8.01713H94.218C94.1217 8.01713 94.0736 8.06357 94.0736 8.15644C94.0736 8.97681 94.0695 9.79718 94.0615 10.6176C94.0615 11.4302 94.0615 12.2467 94.0615 13.0671C94.0615 14.3905 94.0655 15.7178 94.0736 17.0489C94.0816 18.3724 94.0856 19.6958 94.0856 21.0192C94.0856 21.3365 93.9211 21.4952 93.5921 21.4952H91.5099C91.1809 21.4952 91.0164 21.3365 91.0164 21.0192C91.0164 19.6571 91.0204 18.295 91.0285 16.9329C91.0445 15.5707 91.0525 14.2125 91.0525 12.8581L91.0405 8.15644C91.0405 8.06357 90.9884 8.01713 90.884 8.01713H87.5501C87.2452 8.01713 87.0807 7.86235 87.0566 7.55277C87.0325 7.25094 87.0205 6.94523 87.0205 6.63566C87.0285 6.31835 87.0325 6.00877 87.0325 5.70694Z" fill="black"/>
<path d="M105.423 5.21936C106.611 5.21936 107.686 5.40897 108.649 5.7882C109.612 6.15969 110.374 6.74014 110.936 7.52955C111.506 8.31123 111.79 9.32508 111.79 10.5711C111.79 11.5695 111.59 12.4711 111.189 13.276C110.787 14.0809 110.146 14.7542 109.263 15.296C109.207 15.3192 109.179 15.3579 109.179 15.4121C109.179 15.443 109.283 15.6249 109.492 15.9577C109.708 16.2905 109.977 16.7007 110.298 17.1883C110.627 17.6758 110.96 18.1712 111.297 18.6742C111.642 19.1773 111.943 19.6223 112.2 20.0092C112.456 20.3962 112.621 20.6439 112.693 20.7522C112.733 20.8141 112.773 20.8838 112.814 20.9612C112.854 21.0308 112.874 21.1082 112.874 21.1934C112.874 21.3327 112.797 21.4178 112.645 21.4488C112.501 21.4797 112.38 21.4952 112.284 21.4952H109.889C109.728 21.4952 109.592 21.4255 109.48 21.2862C109.231 20.9767 108.998 20.6516 108.782 20.3111C108.565 19.9628 108.344 19.6261 108.12 19.3011C107.766 18.7748 107.409 18.2524 107.048 17.7339C106.687 17.2076 106.334 16.6775 105.989 16.1434C105.957 16.0893 105.913 16.0622 105.857 16.0622H103.702C103.606 16.0622 103.558 16.1086 103.558 16.2015C103.558 16.7355 103.554 17.2734 103.546 17.8151C103.546 18.3492 103.542 18.8832 103.534 19.4172C103.534 19.6416 103.538 19.9164 103.546 20.2414C103.562 20.5587 103.554 20.8219 103.522 21.0308C103.498 21.1856 103.454 21.3017 103.389 21.3791C103.333 21.4565 103.213 21.4952 103.028 21.4952H100.946C100.617 21.4952 100.453 21.3327 100.453 21.0076C100.453 20.5897 100.461 20.1718 100.477 19.7538C100.493 19.3282 100.505 18.9025 100.513 18.4769C100.537 16.7123 100.549 14.9438 100.549 13.1715C100.549 11.4921 100.537 9.80492 100.513 8.11001C100.505 7.70756 100.493 7.30898 100.477 6.91428C100.469 6.51183 100.465 6.10938 100.465 5.70694C100.465 5.38189 100.629 5.21936 100.958 5.21936H105.423ZM103.558 13.276H105.989C106.784 13.276 107.429 13.0361 107.927 12.5563C108.424 12.0764 108.673 11.4495 108.673 10.6756C108.673 9.87844 108.44 9.23608 107.975 8.7485C107.51 8.26092 106.86 8.01713 106.025 8.01713H103.546C103.554 8.89168 103.558 9.77009 103.558 10.6524C103.558 11.5269 103.558 12.4015 103.558 13.276Z" fill="black"/>
<path d="M114.535 13.3805C114.535 12.297 114.727 11.2599 115.112 10.2693C115.505 9.27088 116.055 8.38086 116.761 7.59919C117.475 6.81751 118.318 6.20224 119.289 5.75335C120.268 5.29673 121.343 5.06842 122.514 5.06842C123.686 5.06842 124.761 5.29673 125.74 5.75335C126.719 6.20997 127.565 6.83299 128.28 7.6224C129.002 8.40408 129.559 9.2941 129.953 10.2925C130.354 11.2909 130.554 12.3318 130.554 13.4153C130.554 14.4988 130.354 15.5359 129.953 16.5265C129.559 17.5094 129.002 18.3878 128.28 19.1618C127.557 19.9357 126.707 20.5471 125.728 20.996C124.749 21.4449 123.678 21.6693 122.514 21.6693C121.327 21.6693 120.244 21.4487 119.265 21.0076C118.294 20.5587 117.455 19.9473 116.749 19.1734C116.043 18.3994 115.497 17.5172 115.112 16.5265C114.727 15.5281 114.535 14.4795 114.535 13.3805ZM122.623 18.8715C123.65 18.8715 124.516 18.6007 125.222 18.0589C125.937 17.5172 126.478 16.8245 126.847 15.9809C127.224 15.1373 127.413 14.2705 127.413 13.3805C127.413 12.4672 127.22 11.5888 126.835 10.7452C126.45 9.90164 125.892 9.20897 125.162 8.66722C124.44 8.11772 123.561 7.84298 122.526 7.84298C121.515 7.84298 120.641 8.11385 119.903 8.65561C119.172 9.19736 118.611 9.89003 118.218 10.7336C117.824 11.5695 117.628 12.4401 117.628 13.3456C117.628 14.2589 117.828 15.1412 118.23 15.9925C118.639 16.8361 119.217 17.5288 119.963 18.0705C120.709 18.6045 121.596 18.8715 122.623 18.8715Z" fill="black"/>
<path d="M132.986 5.70694C132.986 5.38189 133.15 5.21936 133.479 5.21936H143.385C143.714 5.21936 143.878 5.38189 143.878 5.70694C143.878 6.00103 143.878 6.31061 143.878 6.63566C143.886 6.95297 143.878 7.25868 143.854 7.55277C143.83 7.86235 143.666 8.01713 143.361 8.01713H136.199C136.103 8.01713 136.055 8.06357 136.055 8.15644C136.055 8.79881 136.055 9.44504 136.055 10.0951C136.063 10.7375 136.067 11.3799 136.067 12.0222C136.067 12.1151 136.115 12.1615 136.211 12.1615H142.314C142.642 12.1615 142.807 12.3202 142.807 12.6375V14.4601C142.807 14.7774 142.642 14.9361 142.314 14.9361H136.211C136.115 14.9361 136.067 14.9825 136.067 15.0754C136.067 15.7487 136.067 16.4221 136.067 17.0954C136.067 17.761 136.063 18.4304 136.055 19.1037C136.047 19.4211 136.043 19.7422 136.043 20.0673C136.051 20.3846 136.047 20.7019 136.031 21.0192C136.007 21.3365 135.842 21.4952 135.537 21.4952H133.467C133.138 21.4952 132.974 21.3327 132.974 21.0076C132.974 20.582 132.978 20.1602 132.986 19.7422C133.002 19.3166 133.014 18.8909 133.022 18.4652C133.046 16.6852 133.058 14.909 133.058 13.1367C133.058 11.8907 133.046 10.6524 133.022 9.42182C132.998 8.18353 132.986 6.94523 132.986 5.70694Z" fill="black"/>
<path d="M146.129 5.70694C146.129 5.38189 146.293 5.21936 146.622 5.21936H156.203C156.532 5.21936 156.696 5.38189 156.696 5.70694C156.696 6.00877 156.696 6.31835 156.696 6.63566C156.696 6.94523 156.688 7.25094 156.672 7.55277C156.648 7.86235 156.484 8.01713 156.179 8.01713H149.342C149.246 8.01713 149.198 8.06357 149.198 8.15644C149.198 8.78333 149.198 9.41021 149.198 10.0371C149.206 10.6562 149.21 11.2793 149.21 11.9062C149.21 11.999 149.258 12.0455 149.354 12.0455H155.276C155.605 12.0455 155.77 12.2041 155.77 12.5214V14.1119C155.77 14.4292 155.605 14.5878 155.276 14.5878H149.354C149.258 14.5878 149.21 14.6343 149.21 14.7271C149.21 15.3618 149.206 16.0003 149.198 16.6426C149.198 17.2773 149.198 17.9158 149.198 18.5581C149.198 18.651 149.246 18.6974 149.342 18.6974H156.468C156.773 18.6974 156.937 18.8522 156.961 19.1618C156.977 19.4636 156.985 19.7732 156.985 20.0905C156.993 20.4001 156.997 20.7058 156.997 21.0076C156.997 21.3327 156.833 21.4952 156.504 21.4952H146.61C146.281 21.4952 146.117 21.3327 146.117 21.0076C146.117 20.582 146.121 20.1602 146.129 19.7422C146.145 19.3166 146.157 18.8909 146.165 18.4652C146.189 16.6852 146.201 14.909 146.201 13.1367C146.201 11.8907 146.189 10.6524 146.165 9.42182C146.141 8.18353 146.129 6.94523 146.129 5.70694Z" fill="black"/>
</svg>
