<svg width="24" height="24" viewBox="0 0 24 24" fill="none" xmlns="http://www.w3.org/2000/svg">
<path d="M3.5 20C3.1 20 2.75 19.85 2.45 19.55C2.15 19.25 2 18.9 2 18.5V5.5C2 5.1 2.15 4.75 2.45 4.45C2.75 4.15 3.1 4 3.5 4H20.5C20.9 4 21.25 4.15 21.55 4.45C21.85 4.75 22 5.1 22 5.5V18.5C22 18.9 21.85 19.25 21.55 19.55C21.25 19.85 20.9 20 20.5 20H3.5ZM20.5 6.875L12.4 12.175C12.3333 12.2083 12.2708 12.2375 12.2125 12.2625C12.1542 12.2875 12.0833 12.3 12 12.3C11.9167 12.3 11.8458 12.2875 11.7875 12.2625C11.7292 12.2375 11.6667 12.2083 11.6 12.175L3.5 6.875V18.5H20.5V6.875ZM12 10.95L20.4 5.5H3.625L12 10.95ZM3.5 7.05V6.06707V6.08537V5.5V6.075V6.0522V7.05Z" fill="#FBFBF6"/>
</svg>
